<?xml version="1.0" encoding="utf-8"?>
<!-- Svg Vector Icons : http://www.onlinewebfonts.com/icon -->
<!DOCTYPE svg PUBLIC "-//W3C//DTD SVG 1.1//EN" "http://www.w3.org/Graphics/SVG/1.1/DTD/svg11.dtd">
<svg version="1.1" xmlns="http://www.w3.org/2000/svg" xmlns:xlink="http://www.w3.org/1999/xlink" x="0px" y="0px" viewBox="0 0 1000 1000" enable-background="new 0 0 1000 1000" xml:space="preserve">
<metadata> Svg Vector Icons : http://www.onlinewebfonts.com/icon </metadata>
<g><g transform="translate(0.000000,501.000000) scale(0.100000,-0.100000)"><path d="M3018.9,4777.1c-828.8-103.4-1456.6-526.4-1760.9-1182.9c-275.6-597.2-216.3-1309.2,147.4-1803c535.9-725.4,1659.5-1068,2691.2-823l197.2,47.9L4420,908.7c907.3-771.4,2436.6-809.6,3384.1-86.1c333.1,254.6,555.1,580,664.2,968.5c36.4,130.1,42.1,201,42.1,478.5c0,298.6-3.8,338.8-51.7,493.8c-222,723.5-802,1209.7-1657.6,1393.4c-384.7,82.3-1008.7,67-1387.7-30.6l-111-28.7l-153.1,132.1C4624.8,4679.4,3840.1,4880.4,3018.9,4777.1z M4079.3,4336.8c635.5-164.6,1058.5-518.7,1240.3-1033.6c49.8-143.6,53.6-174.2,53.6-449.8c-1.9-269.9-5.7-310.1-51.7-446c-189.5-564.6-750.3-972.4-1504.4-1096.8c-243.1-40.2-687.2-26.8-936,28.7c-744.6,164.6-1257.5,602.9-1376.2,1179.1c-42.1,204.8-28.7,520.6,30.6,708.2c170.4,537.9,589.5,926.4,1177.1,1091c262.2,74.6,369.4,84.2,784.8,78.5C3840.1,4390.4,3901.3,4382.8,4079.3,4336.8z M6661.4,3781.8c438.3-76.6,752.2-227.8,1035.5-497.7c457.5-438.3,568.5-1131.2,269.9-1690.1c-269.9-509.1-930.2-859.4-1684.4-895.8c-505.3-24.9-1033.6,111-1418.3,367.5c-72.7,47.9-135.9,93.8-141.6,101.4c-3.8,9.6,44,49.8,111,88.1c457.5,281.4,748.4,643.1,882.4,1098.7c116.7,396.2,68.9,924.5-112.9,1286.3c-26.8,51.7-44,103.4-38.3,111c7.7,15.3,137.8,36.4,392.4,67C6073.8,3831.5,6502.5,3810.5,6661.4,3781.8z"/><path d="M683.8,1448.5C530.7,1412.1,404.3,1341.3,301,1236C98.1,1033.1,48.3,763.3,167,508.7c130.2-271.8,514.9-449.8,849.8-392.4c262.2,44,474.7,185.7,574.2,382.8c204.8,411.5-53.6,865.2-545.5,955.1C907.7,1481,806.3,1479.1,683.8,1448.5z M1124,1015.9C1415,836,1231.2,478.1,858,503c-369.4,23-488.1,363.7-183.8,528.3c74.6,40.2,105.3,44,231.6,38.3C1014.9,1063.8,1068.5,1050.4,1124,1015.9z"/><path d="M8962.1,1262.8c-346.4-59.3-616.3-340.7-620.2-646.9c-1.9-164.6,32.5-281.4,118.7-394.3c379-501.5,1255.6-367.5,1412.6,214.4c72.8,269.9-36.4,535.9-285.2,696.7C9404.2,1251.4,9174.6,1299.2,8962.1,1262.8z M9320,834.1c176.1-80.4,231.6-252.7,128.3-388.6c-147.4-193.3-537.9-183.7-671.8,15.3C8598.4,723.1,8987,991,9320,834.1z"/><path d="M2205.5,70.4c-382.8-82.3-633.6-260.3-777.1-555.1c-101.4-210.5-130.2-373.2-116.8-689.1c5.7-149.3,23-319.7,38.3-382.8c26.8-105.3,26.8-116.8-9.6-199.1c-74.6-168.5-13.4-484.3,120.6-616.3c38.3-36.4,76.6-88.1,84.2-114.8c32.5-107.2,112.9-281.4,174.2-377.1c61.2-95.7,65.1-111,65.1-271.8V-3306l-78.5-70.8c-84.2-76.6-156.9-111-530.2-260.3c-403.9-162.7-568.5-256.5-746.5-426.9c-170.4-162.7-287.1-396.2-317.7-627.8l-11.5-91.9h4900h4900l-11.5,91.9c-30.6,231.6-147.4,465.1-317.7,627.8c-178,172.3-367.5,279.5-771.4,438.3c-275.6,107.2-468.9,206.7-524.5,266.1c-34.4,36.3-44,76.6-53.6,214.4c-11.5,168.5-9.6,172.3,49.8,260.3c63.2,93.8,132.1,239.3,174.2,367.5c13.4,40.2,55.5,105.3,93.8,143.5c128.2,130.2,193.3,432.6,128.2,604.9c-32.5,80.4-32.5,93.8-1.9,233.5c19.1,82.3,38.3,275.6,42.1,430.7c9.6,250.7,5.7,294.8-32.5,421.1c-23,76.6-63.2,176.1-90,222c-67,112.9-222,243.1-348.4,290.9c-59.3,23-116.7,47.9-128.2,53.6c-11.5,7.7-63.2,42.1-114.8,76.6c-153.1,103.4-268,128.2-572.3,128.2c-308.2,0-434.5-26.8-660.4-137.8c-271.8-132.1-453.6-377.1-528.3-710.1c-38.3-170.4-28.7-610.6,17.2-796.2c26.8-105.3,26.8-116.8-9.6-199.1c-74.6-168.5-13.4-484.3,120.6-616.3c38.3-36.4,76.6-88.1,84.2-114.8c32.5-107.2,112.9-281.4,174.2-377.1c61.3-95.7,65.1-111,65.1-271.8V-3306l-78.5-70.8c-84.2-76.6-157-111-530.2-260.3c-403.9-162.7-568.5-256.5-746.5-426.9c-164.6-158.9-310.1-442.1-310.1-604.8c0-30.6-7.7-57.4-19.1-57.4c-9.6,0-19.1,26.8-19.1,57.4c0,84.2-70.8,281.4-143.6,402c-158.9,260.3-417.3,436.4-937.9,641.2c-275.6,107.2-468.9,206.7-524.5,266.1c-34.5,36.3-44,76.6-53.6,214.4c-11.5,168.5-9.6,172.3,49.8,260.3c63.2,93.8,132.1,239.3,174.2,367.5c13.4,40.2,55.5,105.3,93.8,143.5c128.2,130.2,193.3,432.6,128.2,604.9c-32.5,80.4-32.5,93.8-1.9,233.5c19.1,82.3,38.3,275.6,42.1,430.7c9.6,250.7,5.7,294.8-32.5,421.1c-23,76.6-63.2,176.1-90,222c-67,112.9-222,243.1-348.4,290.9c-59.3,23-116.8,47.9-128.2,53.6c-11.5,7.7-63.2,42.1-114.8,76.6c-51.7,34.5-135.9,76.5-189.5,93.8C2773.9,93.3,2368.2,104.8,2205.5,70.4z M2787.3-325.8c44-11.5,97.6-45.9,132.1-84.2c40.2-45.9,84.2-70.8,155-88.1c195.2-45.9,271.8-118.7,329.2-313.9c44-155.1,26.8-447.9-42.1-708.2c-26.8-105.3-53.6-210.5-59.3-235.4c-7.7-32.5,5.7-61.2,49.8-107.2c59.3-61.3,61.3-65.1,38.3-151.2c-19.1-80.4-28.7-91.9-95.7-111c-65.1-21-74.6-32.5-86.1-91.9c-36.4-225.9-149.3-470.9-235.4-518.7c-38.3-19.1-40.2-36.4-40.2-340.7c0-317.7,0-319.6,57.4-417.2c68.9-120.6,202.9-243.1,350.3-315.8c59.3-30.6,254.6-114.8,430.7-187.6c356-145.5,493.8-220.1,604.8-323.5c80.4-76.6,183.8-225.8,183.8-266.1c0-21.1-369.4-24.9-2009.8-24.9s-2009.8,3.8-2009.8,24.9c0,45.9,107.2,195.2,199.1,275.6c114.8,99.6,308.2,201,679.5,350.3c344.5,139.7,480.4,214.4,587.6,329.2c149.3,157,156.9,181.8,172.3,534l13.4,317.7l-67,51.7c-84.2,63.2-179.9,252.7-216.3,426.8c-15.3,70.8-28.7,135.9-28.7,141.6c0,5.7-32.5,21.1-74.6,32.5c-67,21-76.6,32.5-95.7,112.9c-23,86.1-21.1,89.9,36.4,149.3l61.3,63.2l-55.5,245c-65.1,302.4-72.7,641.2-15.3,802c93.8,264.1,287.1,402,625.9,449.8C2494.5-287.6,2670.6-295.2,2787.3-325.8z M7687.4-325.8c44-11.5,97.6-45.9,132.1-84.2c40.2-45.9,84.2-70.8,155-88.1c195.2-45.9,271.8-118.7,329.2-313.9c44-157,26.8-447.9-42.1-708.2c-78.5-292.9-76.6-273.7-9.6-342.6c59.3-61.3,61.2-65.1,38.3-151.2c-19.1-80.4-28.7-91.9-95.7-111c-65.1-21-74.7-32.5-86.1-91.9c-36.4-225.9-149.3-470.9-235.4-518.7c-38.3-19.1-40.2-36.4-40.2-340.7c0-317.7,0-319.6,57.4-417.2c68.9-120.6,202.9-243.1,350.3-315.8c59.3-30.6,254.6-114.8,430.7-187.6c356-145.5,493.8-220.1,604.9-323.5c80.4-76.6,183.7-225.8,183.7-266.1c0-21.1-369.4-24.9-2009.8-24.9s-2009.8,3.8-2009.8,24.9c0,45.9,107.2,195.2,199.1,275.6c114.8,99.6,308.2,201,679.5,350.3c344.5,139.7,480.4,214.4,587.6,329.2c149.3,157,157,181.8,172.3,534l13.4,317.7l-67,51.7c-84.2,63.2-179.9,252.7-216.3,426.8c-15.3,70.8-28.7,135.9-28.7,141.6c0,5.7-32.5,21.1-74.7,32.5c-67,21-76.6,32.5-95.7,112.9c-22.9,86.1-21,89.9,36.4,149.3l61.3,63.2l-55.5,245c-65.1,302.4-72.7,641.2-15.3,802c93.8,264.1,287.1,402,625.9,449.8C7394.5-287.6,7570.6-295.2,7687.4-325.8z"/><path d="M373.7-302.9C226.3-341.1,100-465.5,100-576.6c0-195.2,256.5-342.6,499.6-287.1C913.5-790.9,980.5-480.9,712.5-343C628.3-299,463.7-279.9,373.7-302.9z"/><path d="M9431.1-496.2c-229.7-34.5-371.3-218.2-289-377.1c112.9-222,470.8-268,666.1-86.1C10034-745,9789-444.5,9431.1-496.2z"/></g></g>
</svg>