<?xml version="1.0" encoding="utf-8"?>
<!-- Svg Vector Icons : http://www.onlinewebfonts.com/icon -->
<!DOCTYPE svg PUBLIC "-//W3C//DTD SVG 1.1//EN" "http://www.w3.org/Graphics/SVG/1.1/DTD/svg11.dtd">
<svg version="1.1" xmlns="http://www.w3.org/2000/svg" xmlns:xlink="http://www.w3.org/1999/xlink" x="0px" y="0px" viewBox="0 0 1000 1000" enable-background="new 0 0 1000 1000" xml:space="preserve">
<metadata> Svg Vector Icons : http://www.onlinewebfonts.com/icon </metadata>
<g><g><g><path d="M890.1,215c-0.4-1.1-0.7-2.2-1.2-3.2c-0.5-1-1.2-1.9-1.9-2.8c-0.8-1.1-1.6-2-2.6-2.8c-0.4-0.3-0.5-0.7-0.9-1c-0.5-0.4-1.2-0.5-1.8-0.8c-1.2-0.7-2.2-1.2-3.5-1.6c-1.2-0.4-2.5-0.6-3.6-0.7c-0.7-0.1-1.3-0.4-2-0.4h-74.2c-10.2,0-18.5,8.3-18.5,18.5s8.3,18.5,18.5,18.5H836L609.5,549.3l-99.4-40.3c-0.8-0.3-1.7-0.3-2.6-0.5c-1.3-0.3-2.7-0.7-4.1-0.8c-1.2,0-2.4,0.3-3.5,0.5c-1.1,0.2-2.3,0.3-3.4,0.7c-1.3,0.5-2.4,1.3-3.6,2.1c-0.7,0.5-1.6,0.7-2.2,1.3L357.4,632.4l-98.6-25.4c-0.8-0.2-1.5,0-2.2-0.1c-1.3-0.2-2.5-0.3-3.8-0.2c-1.2,0.1-2.3,0.4-3.4,0.7c-1.2,0.3-2.2,0.7-3.3,1.2c-1.2,0.6-2.1,1.3-3.1,2c-0.6,0.5-1.3,0.7-1.9,1.3L123.6,729.4c-7.3,7.2-7.3,18.9,0,26.2c3.6,3.6,8.4,5.4,13.1,5.4c4.8,0,9.5-1.8,13.1-5.4l110-110l97.9,25.1c1.5,0.4,3.1,0.6,4.6,0.6c2.2,0,4.3-0.4,6.3-1.2c0.6-0.2,1.1-0.6,1.7-0.9c1.4-0.7,2.7-1.4,3.9-2.4c0.2-0.1,0.4-0.2,0.6-0.4l132-119l102,41.4c0.2,0.1,0.4,0.1,0.6,0.1c2.1,0.8,4.2,1.2,6.4,1.2l0,0l0,0c2.6,0,5-0.7,7.3-1.8c0.5-0.2,1.1-0.4,1.5-0.7c2.2-1.2,4.3-2.8,5.8-4.9c0.1-0.1,0.2-0.2,0.3-0.3l223-305.6v14.2c0,10.3,8.3,18.5,18.5,18.5c10.3,0,18.5-8.3,18.5-18.5V220c0-0.5-0.2-0.9-0.3-1.4C890.7,217.4,890.4,216.2,890.1,215z"/><path d="M862,452.1l-119,81.6c-0.4,0.3-0.7,0.8-1.1,1.1c-1,0.8-1.9,1.8-2.7,2.7c-0.7,0.9-1.3,1.8-1.9,2.9c-0.5,1-0.9,2-1.2,3.2c-0.4,1.2-0.7,2.4-0.8,3.6c0,0.6-0.4,1.1-0.4,1.7v307.9h-80.3V742.5c0-10.3-8.3-18.5-18.5-18.5s-18.5,8.3-18.5,18.5v114.4h-60.3v-93.5c0-10.3-8.3-18.5-18.5-18.5s-18.5,8.3-18.5,18.5v93.5h-68.8v-93.5c0-10.3-8.3-18.5-18.5-18.5c-10.2,0-18.5,8.3-18.5,18.5v93.5H381v-93.5c0-10.3-8.3-18.5-18.5-18.5c-10.2,0-18.5,8.3-18.5,18.5v93.5h-55.6v-93.5c0-10.3-8.3-18.5-18.5-18.5c-10.2,0-18.5,8.3-18.5,18.5v93.5h-204V671.4h35.6c10.3,0,18.5-8.3,18.5-18.5c0-10.3-8.3-18.5-18.5-18.5H47.1v-59.1h89.6c10.3,0,18.5-8.3,18.5-18.5c0-10.3-8.3-18.5-18.5-18.5H47.1v-52.2h89.6c10.3,0,18.5-8.3,18.5-18.5s-8.3-18.5-18.5-18.5H47.1v-83.5h547.2c10.3,0,18.5-8.3,18.5-18.5c0-10.3-8.3-18.5-18.5-18.5H28.5c-10.2,0-18.5,8.3-18.5,18.5v528.6c0,10.3,8.3,18.5,18.5,18.5h725c10.3,0,18.5-8.3,18.5-18.5V558.7L883,482.7c8.4-5.8,10.6-17.4,4.8-25.8C882,448.4,870.5,446.3,862,452.1z"/><path d="M501.6,269.5c0,10.3,8.3,18.5,18.5,18.5h95.8c10.3,0,18.5-8.3,18.5-18.5s-8.3-18.5-18.5-18.5h-95.8C509.9,251,501.6,259.3,501.6,269.5z"/><path d="M677.8,223.1c4.9,0,9.7-1.9,13.4-5.7c7.1-7.4,6.8-19.1-0.6-26.2l-83.5-80c-7.3-7.1-19.1-6.8-26.2,0.5c-7.1,7.4-6.8,19.1,0.6,26.2l83.5,80C668.5,221.4,673.1,223.1,677.8,223.1z"/><path d="M971.5,417.9c-10.3,0-18.5,8.3-18.5,18.5v89.7c0,10.3,8.3,18.5,18.5,18.5c10.3,0,18.5-8.3,18.5-18.5v-89.7C990,426.2,981.7,417.9,971.5,417.9z"/></g></g><g></g><g></g><g></g><g></g><g></g><g></g><g></g><g></g><g></g><g></g><g></g><g></g><g></g><g></g><g></g></g>
</svg>