<?xml version="1.0" encoding="utf-8"?>
<!-- Svg Vector Icons : http://www.onlinewebfonts.com/icon -->
<!DOCTYPE svg PUBLIC "-//W3C//DTD SVG 1.1//EN" "http://www.w3.org/Graphics/SVG/1.1/DTD/svg11.dtd">
<svg version="1.1" xmlns="http://www.w3.org/2000/svg" xmlns:xlink="http://www.w3.org/1999/xlink" x="0px" y="0px" viewBox="0 0 1000 1000" enable-background="new 0 0 1000 1000" xml:space="preserve">
<metadata> Svg Vector Icons : http://www.onlinewebfonts.com/icon </metadata>
<g><g><path d="M316.2,431.2c0,53.3,19.4,107.2,53.2,148c35.6,42.9,82,66.5,130.8,66.5c48.7,0,95.1-23.6,130.6-66.5c33.7-40.7,53.1-94.7,53.1-147.9v-46.9c13.6-58.7,16.5-109.5,16.5-142c0-41.8-4.6-70.8-8.8-83.9c-2.3-7-9-11.2-16-10.5c-1.2-0.1-2.3-0.1-3.5,0.1c-28.5,4.1-63.4-2.9-100.4-10.4c-59.9-12-127.6-25.6-179.4,10.3c-0.5,0-0.9-0.1-1.4-0.1c-29.1,0-54.9,11.6-72.7,32.7c-16.4,19.5-25.5,46.3-25.5,75.5c0,47.8,20.3,136.1,23.6,150.2L316.2,431.2L316.2,431.2z M607.2,559.7c-29.6,35.7-67.6,55.4-107,55.4c-39.5,0-77.5-19.7-107.2-55.4c-29.3-35.4-46.2-82.2-46.2-128.4v-18.4c0-37.9,25.4-89.4,35.1-107.5c137.7-15.7,229.9,22.3,250.8,32.1l20.5,48.4v45.6C653.2,477.6,636.5,524.4,607.2,559.7z M390.7,178.6c1.1,0,2.2-0.1,3.2-0.4c4.2,0.9,8.8,0,12.5-2.8c41.3-31.4,101.2-19.3,159.1-7.7c31,6.2,60.7,12.2,88.2,12.2c3.8,0,7.6-0.1,11.3-0.4c4.6,25.9,8.3,81.8-2,150.8l-4.3-10.2c-1.3-3.2-3.7-5.8-6.7-7.5c-4.4-2.4-109.4-58.5-280.4-37.1c-5,0.3-9.8,3-12.5,7.6c-1,1.7-14.3,25-25.8,54.7c-5.2-28.4-10-60.3-10-81.9C323.2,202.6,357.1,178.6,390.7,178.6z"/><path d="M763.9,679.6c-0.3-0.1-0.7-0.2-1-0.2l-91.1-19.1l-24.1-36.5c-0.2-0.3-0.3-0.5-0.5-0.8c-4.4-5.8-11-9.7-18.3-10.6c-7.2-0.9-14.6,1.3-20.3,5.9c-0.1,0.1-0.2,0.2-0.3,0.2L500,711.9l-108.3-93.2c-0.1-0.1-0.2-0.2-0.3-0.2c-5.7-4.6-13-6.8-20.3-5.9c-7.2,0.9-13.9,4.7-18.3,10.6c-0.2,0.2-0.4,0.5-0.5,0.8l-24.1,36.5l-91.1,19.1c-0.3,0.1-0.7,0.2-1,0.2c-26.5,7.4-49,23.8-65.2,47.5c-14.7,21.6-22.8,47.6-22.8,73.3v28.8c0,25.3,22.5,45.8,50.1,45.8h266.9c0,0,0,0,0.1,0c0,0,0,0,0.1,0h69.5c0,0,0,0,0.1,0c0,0,0,0,0.1,0h266.9c27.6,0,50.1-20.5,50.1-45.8v-28.8c0-25.7-8.1-51.8-22.8-73.3C812.9,703.5,790.4,687.1,763.9,679.6z M624.9,644.8l19,28.8l-76.1,104.6l-45.3-45.3L624.9,644.8z M490,814H510l6.1,30.5h-32.3L490,814z M515.3,774.9c0,5-3.1,8.4-5.1,8.4h-20.4c-2,0-5.1-3.3-5.1-8.4V769l15.3-15.3l15.3,15.3L515.3,774.9L515.3,774.9z M375.1,644.8l102.4,88.1l-45.3,45.3l-76.1-104.6L375.1,644.8z M178.7,829.3v-28.8c0-36.1,22.4-79,65.2-91.2l87.1-18.2l87,119.7c2.6,3.6,6.7,5.9,11.2,6.3c0.4,0,0.8,0,1.2,0c4,0,7.9-1.6,10.8-4.5l17.9-17.9c0.8,1.5,1.7,2.9,2.7,4.3l-9.1,45.5H198.2C187.6,844.5,178.7,837.5,178.7,829.3z M821.3,829.3c0,8.2-8.9,15.2-19.5,15.2H547.4l-9.1-45.5c1-1.4,1.9-2.8,2.7-4.3l17.9,17.9c2.9,2.9,6.8,4.5,10.8,4.5c0.4,0,0.8,0,1.2,0c4.5-0.4,8.6-2.6,11.2-6.3l87-119.7l87.1,18.2c42.8,12.3,65.2,55.1,65.2,91.2L821.3,829.3L821.3,829.3z"/><path d="M132.8,460c0,37.2,12.7,72.1,35.6,98.3c23.3,26.6,54.5,41.2,87.7,41.2c24.9,0,48.9-8.3,69.4-24.1c6.7-5.2,8-14.8,2.8-21.5c-5.2-6.7-14.8-8-21.5-2.8c-15.1,11.6-32.6,17.7-50.7,17.7c-51.1,0-92.8-48.9-92.8-108.9v-9c0-24.2,10-56.2,15.3-71.4c33-2.9,62.6,1.4,86.7,5l2.7,0.4c0.8,0.1,1.5,0.2,2.3,0.2c7.5,0,14-5.5,15.1-13.1c1.2-8.4-4.6-16.1-12.9-17.4l-2.7-0.4c-28.1-4.2-63.2-9.3-104.1-4.1c0,0-0.1,0-0.1,0c0,0,0,0,0,0c-0.1,0-0.1,0-0.2,0c-0.4,0.1-0.9,0.1-1.3,0.2c-0.2,0.1-0.5,0.1-0.7,0.2c-0.2,0.1-0.5,0.1-0.7,0.2c-0.3,0.1-0.6,0.2-0.9,0.3c-0.2,0.1-0.3,0.1-0.5,0.2c-0.3,0.1-0.6,0.3-0.9,0.4c-0.2,0.1-0.3,0.2-0.5,0.2c-0.3,0.1-0.5,0.3-0.8,0.5c-0.2,0.1-0.3,0.2-0.5,0.3c-0.2,0.1-0.4,0.3-0.6,0.5c-0.2,0.2-0.4,0.3-0.6,0.5c-0.2,0.1-0.3,0.3-0.5,0.4c-0.2,0.2-0.4,0.4-0.6,0.6c-0.1,0.1-0.2,0.3-0.4,0.4c-0.2,0.2-0.4,0.5-0.6,0.7c-0.1,0.1-0.2,0.3-0.3,0.4c-0.2,0.2-0.4,0.5-0.5,0.8c-0.1,0.2-0.3,0.4-0.4,0.7c-0.1,0.2-0.2,0.4-0.4,0.6c-0.2,0.4-0.4,0.8-0.6,1.3c0,0,0,0.1,0,0.1c0,0,0,0,0,0c0,0,0,0.1,0,0.1c-0.3,0.7-1.4,3.5-2.9,8c-1.2-9.7-2-18.9-2-26.3c0-33.1,16-47.9,31.8-47.9c0.7,0,1.5-0.1,2.2-0.2c0.7,0.1,1.5,0.2,2.2,0.2c3.2,0,6.5-1,9.3-3.1c14.3-10.9,32.7-14.5,59.8-11.8c8.4,0.8,15.9-5.3,16.7-13.7c0.8-8.4-5.3-15.9-13.7-16.7c-20.8-2-50.8-2.6-76.9,14.8c-36.5,0.3-61.9,32.5-61.9,78.5c0,32.2,12.7,91,15.1,102L132.8,460L132.8,460z"/><path d="M117.2,737.3H49c-4.8,0-8.4-2.9-8.4-5.4v-19.6c0-22.7,14-49.6,40.7-57.4l55.8-11.7l28.8,41.5c3,4.3,7.7,6.6,12.6,6.6c3,0,6.1-0.9,8.7-2.7c6.9-4.8,8.7-14.4,3.9-21.3L162.3,626l8.5-12.8l59.7,44.6c6.8,5.1,16.4,3.7,21.4-3.1c5.1-6.8,3.7-16.4-3.1-21.4l-65.5-48.9c-4.8-3.8-11.1-5.5-17.2-4.8c-6.2,0.8-12,4.1-15.8,9.1c-0.2,0.2-0.4,0.5-0.5,0.8l-15.3,23.2L74.5,625c-0.3,0.1-0.7,0.2-1,0.2C31.8,637,10,677.9,10,712.3v19.6c0,19.9,17.5,36.1,39,36.1h68.2c8.5,0,15.3-6.9,15.3-15.3C132.5,744.2,125.6,737.3,117.2,737.3z"/><path d="M729.4,262.6c22.5,0.4,47.4,4.5,71.5,8.4c18.2,2.9,35.6,5.7,50.7,6.7c-0.5,36.3-2.9,68.9-5.6,95.1c0,0-0.1,0-0.1-0.1c-0.2-0.2-0.5-0.3-0.7-0.5c-0.1-0.1-0.2-0.2-0.3-0.2c-0.1-0.1-0.3-0.2-0.4-0.2c0,0,0,0-0.1,0c-30.6-18.5-67.8-29.1-113.5-32.5c-8.4-0.6-15.8,5.7-16.4,14.1c-0.6,8.4,5.7,15.8,14.1,16.4c39,2.9,70.6,11.5,96.4,26.1c3.6,8.6,11.6,30.2,11.6,55.1v9c0,60.1-41.6,108.9-92.8,108.9c-18.1,0-35.7-6.1-50.7-17.7c-6.7-5.2-16.3-3.9-21.5,2.8c-5.2,6.7-3.9,16.3,2.8,21.5c20.5,15.7,44.5,24.1,69.4,24.1c33.2,0,64.4-14.6,87.7-41.2c23-26.2,35.6-61.1,35.6-98.3v-16.5c2.2-11.4,14.8-82.7,15.1-176.9c0.4-1.5,0.6-3.1,0.5-4.7c-0.5-8.2-7.3-14.5-15.4-14.4c-0.1,0-0.3,0-0.4,0c-0.3,0-0.6,0-0.9,0c-14.8,0.8-37-2.8-60.4-6.6c-23.9-3.9-51.1-8.3-75.8-8.8c-8.5-0.2-15.4,6.5-15.6,15C714.2,255.5,720.9,262.4,729.4,262.6z"/><path d="M926.5,625.3c-0.3-0.1-0.7-0.2-1-0.2l-60.1-12.6l-15.3-23.2c-0.2-0.3-0.3-0.5-0.5-0.8c-3.8-5-9.5-8.4-15.8-9.1c-6.1-0.7-12.3,1-17.2,4.8l-65.5,48.9c-6.8,5.1-8.2,14.7-3.1,21.4c5.1,6.8,14.7,8.2,21.4,3.1l59.7-44.6l8.5,12.8L809,667.3c-4.8,7-3.1,16.5,3.9,21.3c2.7,1.8,5.7,2.7,8.7,2.7c4.9,0,9.6-2.3,12.6-6.6l28.8-41.5l55.8,11.7c26.7,7.7,40.7,34.6,40.7,57.4v19.6c0,2.6-3.6,5.4-8.4,5.4h-68.2c-8.5,0-15.3,6.9-15.3,15.3s6.9,15.3,15.3,15.3H951c21.5,0,39-16.2,39-36.1v-19.6C990,677.9,968.2,637,926.5,625.3z"/></g><g></g><g></g><g></g><g></g><g></g><g></g><g></g><g></g><g></g><g></g><g></g><g></g><g></g><g></g><g></g></g>
</svg>