<?xml version="1.0" encoding="utf-8"?>
<!-- Svg Vector Icons : http://www.onlinewebfonts.com/icon -->
<!DOCTYPE svg PUBLIC "-//W3C//DTD SVG 1.1//EN" "http://www.w3.org/Graphics/SVG/1.1/DTD/svg11.dtd">
<svg version="1.1" xmlns="http://www.w3.org/2000/svg" xmlns:xlink="http://www.w3.org/1999/xlink" x="0px" y="0px" viewBox="0 0 1000 1000" enable-background="new 0 0 1000 1000" xml:space="preserve">
<metadata> Svg Vector Icons : http://www.onlinewebfonts.com/icon </metadata>
<g><path d="M909.9,120.3c-68.5-73.1-141.8-88.5-191.2-88.5c-68.9,0-126.8,29-155.4,53.9c-16.2,14.1-38.3,34.9-63.2,59c-20.1-19.7-34.6-33.5-43.2-41.2C392,45.9,218.5-8.2,92.4,121.2c-34,34.9-57.8,72.7-70.7,112.4c-10.8,33-14.1,67.6-10,102.7c7.2,61.5,35,107.3,45.4,124.5c0.9,1.4,1.6,2.6,2.1,3.5c19.8,34,80,87.5,90,96.3l-18.9,19c-13.7,13.8-21.2,32-21.1,51.4c0.1,19.4,7.7,37.6,21.5,51.3c13.7,13.6,31.9,21.1,51.2,21.1c5.6,0,11-0.6,16.3-1.8c-0.4,3.3-0.7,6.7-0.7,10.1c0.1,19.4,7.7,37.6,21.5,51.3c13.7,13.6,31.9,21.1,51.2,21.1c4.6,0,9.2-0.4,13.6-1.3c-0.3,2.7-0.4,5.4-0.4,8.1c0.1,19.4,7.7,37.6,21.5,51.3c13.7,13.6,31.9,21.1,51.2,21.1c4.7,0,9.4-0.5,13.9-1.3c-0.3,2.8-0.5,5.6-0.5,8.4c0.1,19.4,7.7,37.6,21.5,51.3c13.7,13.6,31.9,21.1,51.2,21.1c13.6,0,26.7-3.7,38-10.7l16.1,16.1c13.3,13.4,31.1,20,49.5,20c20.5,0,41.7-8.3,58.1-24.6c19.3-19.2,27.5-45.2,24.1-68.9c3,0.4,6.1,0.6,9.2,0.6c1.6,0,3.2-0.1,4.8-0.2c20-1.2,39.3-10.1,54.2-24.9c14.9-14.8,23.8-34,25.2-54.1c0.3-4.6,0.2-9-0.3-13.4c2.6,0.3,5.3,0.4,8,0.4c1.6,0,3.2-0.1,4.8-0.2c20-1.2,39.3-10.1,54.2-24.9c19.5-19.4,27.8-45.5,24.5-69.3c3.5,0.5,7.1,0.8,10.7,0.8c20.8,0,42.4-8.5,59.2-25.2l0.4-0.4c28.9-30.5,29.9-79.8,2.2-107.8l-13.1-13.9c17.9-19.2,54.7-58.7,68.7-75.9c20.6-25.3,45.9-77.2,49.3-140.1C992.4,274.2,980.9,196.1,909.9,120.3L909.9,120.3L909.9,120.3z M154.3,658.5c-7.4-7.4-11.5-17.2-11.6-27.6c0-10.5,4-20.3,11.4-27.7l102.4-103.1c7.4-7.5,17.3-11.6,27.8-11.6c10.4,0,20.2,4,27.6,11.4c7.4,7.4,11.5,17.2,11.6,27.6c0,10.5-4,20.3-11.4,27.7L209.6,658.4c-7.4,7.5-17.3,11.6-27.8,11.6C171.5,669.9,161.7,665.9,154.3,658.5L154.3,658.5L154.3,658.5z M242.6,739.2c-7.4-7.4-11.5-17.2-11.6-27.6c0-10.4,4-20.3,11.4-27.7l102.4-103.1c7.4-7.5,17.3-11.6,27.8-11.6c10.4,0,20.2,4,27.6,11.4c7.4,7.4,11.5,17.2,11.6,27.6c0,10.5-4,20.3-11.4,27.7L297.9,739c-7.4,7.5-17.3,11.6-27.8,11.6C259.8,750.5,250,746.5,242.6,739.2L242.6,739.2L242.6,739.2z M328.4,818.4c-7.4-7.4-11.5-17.2-11.6-27.6c0-10.5,4-20.3,11.4-27.7l102.4-103.1c7.4-7.4,17.3-11.6,27.8-11.6c10.4,0,20.2,4,27.6,11.4c15.3,15.2,15.4,40,0.2,55.3L383.7,818.2c-7.4,7.5-17.3,11.6-27.8,11.6C345.6,829.7,335.8,825.7,328.4,818.4L328.4,818.4L328.4,818.4z M442,909.2c-10.4,0-20.2-4-27.6-11.4c-7.4-7.4-11.5-17.2-11.6-27.6c0-10.4,4-20.3,11.4-27.7l102.4-103.1c7.4-7.5,17.3-11.6,27.8-11.6c10.4,0,20.2,4,27.6,11.4c15.3,15.2,15.4,40,0.2,55.3L469.8,897.7C462.4,905.1,452.5,909.2,442,909.2L442,909.2L442,909.2z M580,919.8c-17.9,17.9-44.9,20-60.1,4.7l-14.8-14.8l64.7-65.1l15.1,15.2C600.1,875,597.9,901.9,580,919.8L580,919.8L580,919.8z M858.3,640.7c-18.4,18.1-45.6,20.5-60.7,5.3l-0.2-0.2L660,515.9L646.6,530l-10.2,10.2l133.2,133.4c15.2,15.3,12.8,42.5-5.5,60.7c-9.1,9.1-20.7,14.5-32.6,15.2c-11.1,0.7-21.1-2.9-28.2-10L567.2,603.1l-23.7,23.7l1.1,1.1l132.9,137.7l0.2,0.2c7.1,7.1,10.6,17.1,9.9,28.2c-0.8,11.9-6.2,23.4-15.4,32.5c-9.1,9.1-20.7,14.5-32.6,15.2c-11.1,0.7-21.1-2.9-28.2-10L597,817.1c27.2-28.5,26.7-73.8-1.4-101.7c-13.7-13.6-31.9-21.1-51.2-21.1c-4.7,0-9.4,0.5-13.9,1.3c2.4-21.3-4.6-43.5-21-59.7c-13.7-13.6-31.9-21.1-51.2-21.1c-4.6,0-9.2,0.4-13.6,1.3c0.3-2.7,0.4-5.4,0.4-8.1c-0.1-19.4-7.7-37.6-21.5-51.3c-13.7-13.6-31.9-21.1-51.2-21.1c-5.6,0-11,0.6-16.3,1.8c0.5-3.3,0.7-6.7,0.7-10.1c-0.1-19.4-7.7-37.6-21.5-51.3c-13.7-13.6-31.9-21.1-51.2-21.1c-19.5,0-37.8,7.6-51.6,21.5l-65,65.5l4.8-5.6c-18.3-15.9-69.1-62.8-84.3-89c-0.6-1.1-1.4-2.4-2.4-4C20.4,335.6,31,232.3,116.4,144.6c61.1-62.7,131.1-72.1,179-68.9c63.5,4.2,114.6,31.2,139.1,53c8.2,7.3,22.1,20.6,41.5,39.6c-90.3,88.9-201.8,204.9-208.2,211.6l-11.2,11.6l11.2,11.6c3,3.1,74.9,77,155.4,77c3.2,0,6.5-0.1,9.6-0.4c6.5-0.3,74.5-4.5,127.9-56l80.5-74.7l114.2,119.1l-0.2,0.2l105,111.1l0.3,0.3C875.5,594.5,874.3,623.5,858.3,640.7L858.3,640.7L858.3,640.7z M956.1,324.5c-3,54.8-24.4,99.3-41.9,120.7c-12.7,15.6-46.8,52.3-65.1,71.9L642.8,302l-104.8,97.3l-0.2,0.2c-45.4,43.8-105.7,46.7-106.3,46.7l-0.7,0c-2.4,0.2-4.9,0.3-7.3,0.3c-49.4,0-97.8-36.8-119.5-55.7c46.3-48,216-223,281.4-279.8C609.5,90,659,65.4,718.7,65.4c62.2,0,118.3,26.2,166.7,77.8C948.4,210.4,958.6,278.9,956.1,324.5L956.1,324.5L956.1,324.5z"/></g>
</svg>